<svg viewBox="0 0 64 64" fill="none" xmlns="http://www.w3.org/2000/svg">
  <circle cx="32" cy="32" r="30" fill="#0c0a09" stroke="#EC7505" stroke-width="2" />
  <circle cx="32" cy="32" r="26" fill="#EC7505" fill-opacity="0.05" />
  <path d="M37.5 25.5C38.8 25.5 39.8 26.5 39.8 27.8C39.8 28.8 39.1 29.6 38.2 29.9C39.4 30.3 40.2 31.4 40.2 32.7C40.2 34.2 39 35.4 37.5 35.4H28.5V25.5H37.5ZM31.5 27.5V29.5H37.5C38 29.5 38.4 29.1 38.4 28.6C38.4 28.1 38 27.7 37.5 27.7H31.5V27.5ZM31.5 31.4V33.4H37.5C38 33.4 38.4 33 38.4 32.5C38.4 32 38 31.6 37.5 31.6L31.5 31.4ZM28.5 21.5V25.5H26.5V27.5H28.5V35.4H26.5V37.4H28.5V41.5H31.5V37.4H34.5V41.5H37.5V37.4H39.5V35.4H37.5V21.5H34.5V25.5H31.5V21.5H28.5Z" fill="#EC7505" />
</svg>
